<?xml version="1.0" standalone="no"?>
<svg viewBox="0 0 200 200" xmlns="http://www.w3.org/2000/svg">
  <path fill="#8A3FFC" d="M38.7,-55.7C49.5,-60.7,57.3,-49.2,59.8,-37.1C62.3,-25.1,59.5,-12.5,61.2,1C62.9,14.5,69.2,29.1,66.2,40.2C63.1,51.3,50.8,59,38.2,66.7C25.7,74.4,12.8,82.2,5.5,72.7C-1.9,63.2,-3.8,36.5,-13.6,27.2C-23.4,17.8,-41.1,25.9,-50,24.3C-59,22.6,-59.1,11.3,-56.4,1.6C-53.6,-8.1,-48,-16.3,-45.1,-28.4C-42.2,-40.4,-42,-56.4,-34.9,-53.6C-27.8,-50.8,-13.9,-29.3,0,-29.2C13.9,-29.2,27.8,-50.7,38.7,-55.7Z" transform="translate(100 100)" />
</svg>
