<?xml version="1.0" standalone="no"?>
<svg viewBox="0 0 200 200" xmlns="http://www.w3.org/2000/svg">
  <path fill="#8A3FFC" d="M33.3,-55.8C41.2,-53.2,44.2,-40.2,45.4,-29.2C46.7,-18.2,46.1,-9.1,40,-3.5C33.9,2,22.2,4,18.4,10.7C14.6,17.3,18.9,28.6,17.1,40.5C15.4,52.4,7.7,64.8,-0.6,65.8C-8.9,66.9,-17.8,56.6,-25,47.9C-32.2,39.2,-37.7,32.1,-43.5,24.4C-49.3,16.6,-55.3,8.3,-48.2,4.1C-41.1,-0.1,-20.8,-0.2,-18.5,-13.8C-16.1,-27.4,-31.6,-54.4,-31.5,-61.6C-31.4,-68.8,-15.7,-56.1,-1.5,-53.5C12.7,-50.9,25.4,-58.5,33.3,-55.8Z" transform="translate(100 100)" />
</svg>
