<?xml version="1.0" standalone="no"?>
<svg viewBox="0 0 200 200" xmlns="http://www.w3.org/2000/svg">
  <path fill="#0F62FE" d="M42,-66.7C54.1,-65.7,63.5,-53.9,65.8,-41C68,-28.1,63.2,-14,63.9,0.4C64.7,14.9,71.1,29.8,61.6,30.2C52.1,30.6,26.8,16.5,13.8,22.1C0.9,27.7,0.5,53,-3.8,59.6C-8.1,66.3,-16.3,54.3,-29.6,49C-43,43.6,-61.5,44.9,-69.4,37.8C-77.4,30.8,-74.9,15.4,-66.7,4.7C-58.5,-6,-44.7,-11.9,-40.1,-24.8C-35.5,-37.6,-40,-57.4,-34.9,-62.5C-29.7,-67.6,-14.8,-58,0,-58C14.9,-58.1,29.8,-67.7,42,-66.7Z" transform="translate(100 100)" />
</svg>
