<?xml version="1.0" standalone="no"?>
<svg viewBox="0 0 200 200" xmlns="http://www.w3.org/2000/svg">
  <path fill="#FF0066" d="M17.9,-47.4C18.1,-30.9,9.8,-15.8,7.8,-8.2C5.9,-0.6,10.3,-0.3,13.8,2C17.3,4.3,19.9,8.6,17.8,9.3C15.7,9.9,8.9,6.8,5.2,17.4C1.4,27.9,0.7,52.2,-4.1,59.2C-8.8,66.2,-17.7,56.1,-30.7,50.8C-43.6,45.6,-60.7,45.3,-66.6,37.6C-72.5,30,-67.1,15,-58.2,5.2C-49.2,-4.7,-36.7,-9.3,-26.6,-9.6C-16.5,-9.9,-8.7,-5.7,-4.6,-20C-0.6,-34.3,-0.3,-67.1,4.3,-74.5C8.8,-81.8,17.7,-63.9,17.9,-47.4Z" transform="translate(100 100)" />
</svg>
